<svg width="24" height="24" viewBox="0 0 24 24" fill="none" xmlns="http://www.w3.org/2000/svg">
<path fill-rule="evenodd" clip-rule="evenodd" d="M8.05263 4C5.82372 4 4 5.82372 4 8.05263V15.9474C4 18.1759 5.82374 20 8.05263 20H15.9474C18.1759 20 20 18.1759 20 15.9474V8.05263C20 5.82374 18.1759 4 15.9474 4H8.05263ZM2 8.05263C2 4.71915 4.71915 2 8.05263 2H15.9474C19.2804 2 22 4.71906 22 8.05263V15.9474C22 19.2805 19.2805 22 15.9474 22H8.05263C4.71906 22 2 19.2804 2 15.9474V8.05263Z" fill="#ffffff"/>
<path fill-rule="evenodd" clip-rule="evenodd" d="M12 15C13.6569 15 15 13.6569 15 12C15 10.3431 13.6569 9 12 9C10.3431 9 9 10.3431 9 12C9 13.6569 10.3431 15 12 15ZM12 17C14.7614 17 17 14.7614 17 12C17 9.23858 14.7614 7 12 7C9.23858 7 7 9.23858 7 12C7 14.7614 9.23858 17 12 17Z" fill="#ffffff"/>
<path d="M16 7C16 6.4475 16.4475 6 17 6C17.5525 6 18 6.4475 18 7C18 7.5525 17.5525 8 17 8C16.4475 8 16 7.5525 16 7Z" fill="#ffffff"/>
</svg>
