<svg width="117" height="16" viewBox="0 0 117 16" fill="none" xmlns="http://www.w3.org/2000/svg">
<path d="M0.879883 14.9015V0.901523H6.63988C7.87988 0.901523 8.93988 1.10152 9.81988 1.50152C10.7132 1.90152 11.3999 2.47486 11.8799 3.22152C12.3599 3.96819 12.5999 4.85486 12.5999 5.88152C12.5999 6.90819 12.3599 7.79486 11.8799 8.54152C11.3999 9.27486 10.7132 9.84152 9.81988 10.2415C8.93988 10.6282 7.87988 10.8215 6.63988 10.8215H2.31988L3.47988 9.64152V14.9015H0.879883ZM10.0399 14.9015L6.49988 9.82152H9.27988L12.8399 14.9015H10.0399ZM3.47988 9.92152L2.31988 8.68152H6.51988C7.66655 8.68152 8.52655 8.43486 9.09988 7.94152C9.68655 7.44819 9.97988 6.76152 9.97988 5.88152C9.97988 4.98819 9.68655 4.30152 9.09988 3.82152C8.52655 3.34152 7.66655 3.10152 6.51988 3.10152H2.31988L3.47988 1.82152V9.92152Z" fill="white"/>
<path d="M21.7511 14.9015V12.7415L21.6111 12.2815V8.50152C21.6111 7.76819 21.3911 7.20152 20.9511 6.80152C20.5111 6.38819 19.8445 6.18152 18.9511 6.18152C18.3511 6.18152 17.7578 6.27486 17.1711 6.46152C16.5978 6.64819 16.1111 6.90819 15.7111 7.24152L14.7311 5.42152C15.3045 4.98152 15.9845 4.65486 16.7711 4.44152C17.5711 4.21486 18.3978 4.10152 19.2511 4.10152C20.7978 4.10152 21.9911 4.47486 22.8311 5.22152C23.6845 5.95486 24.1111 7.09486 24.1111 8.64152V14.9015H21.7511ZM18.3911 15.0415C17.5911 15.0415 16.8911 14.9082 16.2911 14.6415C15.6911 14.3615 15.2245 13.9815 14.8911 13.5015C14.5711 13.0082 14.4111 12.4549 14.4111 11.8415C14.4111 11.2415 14.5511 10.7015 14.8311 10.2215C15.1245 9.74152 15.5978 9.36152 16.2511 9.08152C16.9045 8.80152 17.7711 8.66152 18.8511 8.66152H21.9511V10.3215H19.0311C18.1778 10.3215 17.6045 10.4615 17.3111 10.7415C17.0178 11.0082 16.8711 11.3415 16.8711 11.7415C16.8711 12.1949 17.0511 12.5549 17.4111 12.8215C17.7711 13.0882 18.2711 13.2215 18.9111 13.2215C19.5245 13.2215 20.0711 13.0815 20.5511 12.8015C21.0445 12.5215 21.3978 12.1082 21.6111 11.5615L22.0311 13.0615C21.7911 13.6882 21.3578 14.1749 20.7311 14.5215C20.1178 14.8682 19.3378 15.0415 18.3911 15.0415Z" fill="white"/>
<path d="M33.2396 15.0415C32.3329 15.0415 31.5262 14.8415 30.8196 14.4415C30.1129 14.0415 29.5529 13.4415 29.1396 12.6415C28.7396 11.8282 28.5396 10.8015 28.5396 9.56152C28.5396 8.30819 28.7462 7.28152 29.1596 6.48152C29.5862 5.68152 30.1529 5.08819 30.8596 4.70152C31.5796 4.30152 32.3729 4.10152 33.2396 4.10152C34.2929 4.10152 35.2196 4.32819 36.0196 4.78152C36.8329 5.23486 37.4729 5.86819 37.9396 6.68152C38.4196 7.49486 38.6596 8.45486 38.6596 9.56152C38.6596 10.6682 38.4196 11.6282 37.9396 12.4415C37.4729 13.2549 36.8329 13.8949 36.0196 14.3615C35.2196 14.8149 34.2929 15.0415 33.2396 15.0415ZM27.3196 14.9015V0.0615234H29.8196V6.70152L29.6196 9.54152L29.6996 12.3815V14.9015H27.3196ZM32.9596 12.9015C33.5596 12.9015 34.0929 12.7682 34.5596 12.5015C35.0396 12.2349 35.4196 11.8482 35.6996 11.3415C35.9796 10.8349 36.1196 10.2415 36.1196 9.56152C36.1196 8.86819 35.9796 8.27486 35.6996 7.78152C35.4196 7.27486 35.0396 6.88819 34.5596 6.62152C34.0929 6.35486 33.5596 6.22152 32.9596 6.22152C32.3596 6.22152 31.8196 6.35486 31.3396 6.62152C30.8596 6.88819 30.4796 7.27486 30.1996 7.78152C29.9196 8.27486 29.7796 8.86819 29.7796 9.56152C29.7796 10.2415 29.9196 10.8349 30.1996 11.3415C30.4796 11.8482 30.8596 12.2349 31.3396 12.5015C31.8196 12.7682 32.3596 12.9015 32.9596 12.9015Z" fill="white"/>
<path d="M45.8305 15.0415C44.7372 15.0415 43.7638 14.8082 42.9105 14.3415C42.0572 13.8615 41.3838 13.2082 40.8905 12.3815C40.3972 11.5549 40.1505 10.6149 40.1505 9.56152C40.1505 8.49486 40.3972 7.55486 40.8905 6.74152C41.3838 5.91486 42.0572 5.26819 42.9105 4.80152C43.7638 4.33486 44.7372 4.10152 45.8305 4.10152C46.9372 4.10152 47.9172 4.33486 48.7705 4.80152C49.6372 5.26819 50.3105 5.90819 50.7905 6.72152C51.2838 7.53486 51.5305 8.48152 51.5305 9.56152C51.5305 10.6149 51.2838 11.5549 50.7905 12.3815C50.3105 13.2082 49.6372 13.8615 48.7705 14.3415C47.9172 14.8082 46.9372 15.0415 45.8305 15.0415ZM45.8305 12.9015C46.4438 12.9015 46.9905 12.7682 47.4705 12.5015C47.9505 12.2349 48.3238 11.8482 48.5905 11.3415C48.8705 10.8349 49.0105 10.2415 49.0105 9.56152C49.0105 8.86819 48.8705 8.27486 48.5905 7.78152C48.3238 7.27486 47.9505 6.88819 47.4705 6.62152C46.9905 6.35486 46.4505 6.22152 45.8505 6.22152C45.2372 6.22152 44.6905 6.35486 44.2105 6.62152C43.7438 6.88819 43.3705 7.27486 43.0905 7.78152C42.8105 8.27486 42.6705 8.86819 42.6705 9.56152C42.6705 10.2415 42.8105 10.8349 43.0905 11.3415C43.3705 11.8482 43.7438 12.2349 44.2105 12.5015C44.6905 12.7682 45.2305 12.9015 45.8305 12.9015Z" fill="white"/>
<path d="M57.9411 15.0415C56.7678 15.0415 55.8611 14.7415 55.2211 14.1415C54.5811 13.5282 54.2611 12.6282 54.2611 11.4415V1.86152H56.7611V11.3815C56.7611 11.8882 56.8878 12.2815 57.1411 12.5615C57.4078 12.8415 57.7745 12.9815 58.2411 12.9815C58.8011 12.9815 59.2678 12.8349 59.6411 12.5415L60.3411 14.3215C60.0478 14.5615 59.6878 14.7415 59.2611 14.8615C58.8345 14.9815 58.3945 15.0415 57.9411 15.0415ZM52.5011 6.30152V4.30152H59.6211V6.30152H52.5011Z" fill="white"/>
<path d="M68.9777 14.9015V12.7415L68.8377 12.2815V8.50152C68.8377 7.76819 68.6177 7.20152 68.1777 6.80152C67.7377 6.38819 67.071 6.18152 66.1777 6.18152C65.5777 6.18152 64.9844 6.27486 64.3977 6.46152C63.8244 6.64819 63.3377 6.90819 62.9377 7.24152L61.9577 5.42152C62.531 4.98152 63.211 4.65486 63.9977 4.44152C64.7977 4.21486 65.6244 4.10152 66.4777 4.10152C68.0244 4.10152 69.2177 4.47486 70.0577 5.22152C70.911 5.95486 71.3377 7.09486 71.3377 8.64152V14.9015H68.9777ZM65.6177 15.0415C64.8177 15.0415 64.1177 14.9082 63.5177 14.6415C62.9177 14.3615 62.451 13.9815 62.1177 13.5015C61.7977 13.0082 61.6377 12.4549 61.6377 11.8415C61.6377 11.2415 61.7777 10.7015 62.0577 10.2215C62.351 9.74152 62.8244 9.36152 63.4777 9.08152C64.131 8.80152 64.9977 8.66152 66.0777 8.66152H69.1777V10.3215H66.2577C65.4044 10.3215 64.831 10.4615 64.5377 10.7415C64.2444 11.0082 64.0977 11.3415 64.0977 11.7415C64.0977 12.1949 64.2777 12.5549 64.6377 12.8215C64.9977 13.0882 65.4977 13.2215 66.1377 13.2215C66.751 13.2215 67.2977 13.0815 67.7777 12.8015C68.271 12.5215 68.6244 12.1082 68.8377 11.5615L69.2577 13.0615C69.0177 13.6882 68.5844 14.1749 67.9577 14.5215C67.3444 14.8682 66.5644 15.0415 65.6177 15.0415Z" fill="white"/>
<path d="M80.6061 4.10152C81.4595 4.10152 82.2195 4.26819 82.8861 4.60152C83.5661 4.93486 84.0995 5.44819 84.4861 6.14152C84.8728 6.82152 85.0661 7.70152 85.0661 8.78152V14.9015H82.5661V9.10152C82.5661 8.15486 82.3395 7.44819 81.8861 6.98152C81.4461 6.51486 80.8261 6.28152 80.0261 6.28152C79.4395 6.28152 78.9195 6.40152 78.4661 6.64152C78.0128 6.88152 77.6595 7.24152 77.4061 7.72152C77.1661 8.18819 77.0461 8.78152 77.0461 9.50152V14.9015H74.5461V4.22152H76.9261V7.10152L76.5061 6.22152C76.8795 5.54152 77.4195 5.02152 78.1261 4.66152C78.8461 4.28819 79.6728 4.10152 80.6061 4.10152Z" fill="white"/>
<path d="M93.0571 15.0415C91.9637 15.0415 90.9904 14.8082 90.1371 14.3415C89.2837 13.8615 88.6104 13.2082 88.1171 12.3815C87.6237 11.5549 87.3771 10.6149 87.3771 9.56152C87.3771 8.49486 87.6237 7.55486 88.1171 6.74152C88.6104 5.91486 89.2837 5.26819 90.1371 4.80152C90.9904 4.33486 91.9637 4.10152 93.0571 4.10152C94.1637 4.10152 95.1437 4.33486 95.9971 4.80152C96.8637 5.26819 97.5371 5.90819 98.0171 6.72152C98.5104 7.53486 98.7571 8.48152 98.7571 9.56152C98.7571 10.6149 98.5104 11.5549 98.0171 12.3815C97.5371 13.2082 96.8637 13.8615 95.9971 14.3415C95.1437 14.8082 94.1637 15.0415 93.0571 15.0415ZM93.0571 12.9015C93.6704 12.9015 94.2171 12.7682 94.6971 12.5015C95.1771 12.2349 95.5504 11.8482 95.8171 11.3415C96.0971 10.8349 96.2371 10.2415 96.2371 9.56152C96.2371 8.86819 96.0971 8.27486 95.8171 7.78152C95.5504 7.27486 95.1771 6.88819 94.6971 6.62152C94.2171 6.35486 93.6771 6.22152 93.0771 6.22152C92.4637 6.22152 91.9171 6.35486 91.4371 6.62152C90.9704 6.88819 90.5971 7.27486 90.3171 7.78152C90.0371 8.27486 89.8971 8.86819 89.8971 9.56152C89.8971 10.2415 90.0371 10.8349 90.3171 11.3415C90.5971 11.8482 90.9704 12.2349 91.4371 12.5015C91.9171 12.7682 92.4571 12.9015 93.0571 12.9015Z" fill="white"/>
<path d="M103.695 14.9015L99.1147 4.22152H101.715L105.655 13.6415H104.375L108.455 4.22152H110.855L106.275 14.9015H103.695Z" fill="white"/>
<circle cx="113.864" cy="12.7573" r="2.14404" fill="#E23903"/>
</svg>
