<svg width="24" height="24" viewBox="0 0 24 24" fill="none" xmlns="http://www.w3.org/2000/svg">
<path d="M21.5982 4.08533C21.3608 3.81197 21.0647 3.59513 20.7317 3.45083C20.3987 3.30652 20.0374 3.23844 19.6743 3.2516C18.7322 3.31377 17.811 3.55671 16.9617 3.96702C16.9617 3.96702 7.16775 8.05458 3.90423 9.48252C3.35527 9.72245 1.68451 10.4534 1.75179 12.0432C1.78104 12.7339 2.15205 13.6713 3.75407 14.2171C3.75407 14.2171 5.13573 14.6912 6.0128 14.9413C7.05394 15.2984 8.19125 15.2594 9.20514 14.8317C9.35504 15.6284 9.88684 16.3391 10.7513 16.9534C11.541 17.5147 13.6367 19.0826 15.3451 20.0045C16.0224 20.37 16.7096 20.7165 17.4795 20.75C18.5501 20.75 19.9288 20.1965 20.4222 17.5606C20.86 15.2176 21.3661 11.9478 21.7366 9.55234C21.8936 8.53446 22.0233 7.70028 22.1052 7.21073C22.2566 6.68471 22.2896 6.13201 22.202 5.59186C22.1144 5.05171 21.9082 4.53737 21.5982 4.08533ZM11.5507 13.7683C11.9363 13.3931 14.4256 11.0292 16.4411 9.11802C16.5204 9.04544 16.5755 8.95052 16.599 8.84597C16.6225 8.74142 16.6134 8.63223 16.5728 8.53299C16.5444 8.45694 16.499 8.38834 16.4399 8.33241C16.3808 8.27647 16.3097 8.23469 16.2319 8.21024C16.1541 8.18579 16.0718 8.17931 15.9911 8.19132C15.9104 8.20332 15.8336 8.23347 15.7664 8.27949C13.4661 9.79613 9.4416 12.4513 8.94626 12.7853C8.60783 13.0409 8.20825 13.2045 7.78688 13.2599C7.36551 13.3154 6.93688 13.2607 6.54323 13.1013C5.81395 12.8935 5.09539 12.6522 4.37811 12.4072C3.70386 12.177 3.69024 12.1296 3.67559 11.9637C3.66093 11.7978 3.87741 11.5856 4.67989 11.2352C8.9958 9.34721 13.3467 7.53942 17.6989 5.73619C18.2483 5.46833 19.2882 4.97133 19.9205 5.19122C20.5243 5.40118 20.2775 6.45897 20.2038 6.8966C20.1219 7.39003 19.9912 8.23002 19.8333 9.25469C19.4657 11.6341 18.9616 14.8928 18.5277 17.2106C18.2244 18.8363 17.7235 18.8363 17.4785 18.8363C17.0843 18.7931 16.7767 18.6513 16.3962 18.4011C14.8774 17.4025 13.336 16.427 11.8539 15.3746C11.517 15.1371 11.1348 14.8676 11.1099 14.5516C11.1246 14.3977 11.1714 14.2486 11.2473 14.1137C11.3232 13.9789 11.4265 13.8612 11.5507 13.7683Z" fill="#ffffff"/>
</svg>
